<?xml version="1.0" encoding="UTF-8" standalone="no"?>
<!DOCTYPE svg PUBLIC "-//W3C//DTD SVG 1.1//EN"
 "http://www.w3.org/Graphics/SVG/1.1/DTD/svg11.dtd">
<!-- Generated by graphviz version 2.40.1 (20161225.0304)
 -->
<!-- Title: BST Pages: 1 -->
<svg width="464pt" height="260pt"
 viewBox="0.00 0.00 464.00 260.00" xmlns="http://www.w3.org/2000/svg" xmlns:xlink="http://www.w3.org/1999/xlink">
<g id="graph0" class="graph" transform="scale(1 1) rotate(0) translate(4 256)">
<title>BST</title>
<polygon fill="#ffffff" stroke="transparent" points="-4,4 -4,-256 460,-256 460,4 -4,4"/>
<!-- LET0 -->
<g id="node1" class="node">
<title>LET0</title>
<ellipse fill="none" stroke="#000000" cx="136" cy="-234" rx="27" ry="18"/>
<text text-anchor="middle" x="136" y="-229.8" font-family="Times,serif" font-size="14.00" fill="#000000">LET</text>
</g>
<!-- var1 -->
<g id="node2" class="node">
<title>var1</title>
<ellipse fill="none" stroke="#000000" cx="64" cy="-162" rx="27" ry="18"/>
<text text-anchor="middle" x="64" y="-157.8" font-family="Times,serif" font-size="14.00" fill="#000000">a</text>
</g>
<!-- LET0&#45;&gt;var1 -->
<g id="edge11" class="edge">
<title>LET0&#45;&gt;var1</title>
<path fill="none" stroke="#000000" d="M120.7307,-218.7307C110.803,-208.803 97.6847,-195.6847 86.5637,-184.5637"/>
<polygon fill="#000000" stroke="#000000" points="88.7933,-181.8436 79.2473,-177.2473 83.8436,-186.7933 88.7933,-181.8436"/>
</g>
<!-- LET2 -->
<g id="node3" class="node">
<title>LET2</title>
<ellipse fill="none" stroke="#000000" cx="136" cy="-162" rx="27" ry="18"/>
<text text-anchor="middle" x="136" y="-157.8" font-family="Times,serif" font-size="14.00" fill="#000000">LET</text>
</g>
<!-- LET0&#45;&gt;LET2 -->
<g id="edge12" class="edge">
<title>LET0&#45;&gt;LET2</title>
<path fill="none" stroke="#000000" d="M136,-215.8314C136,-208.131 136,-198.9743 136,-190.4166"/>
<polygon fill="#000000" stroke="#000000" points="139.5001,-190.4132 136,-180.4133 132.5001,-190.4133 139.5001,-190.4132"/>
</g>
<!-- LET8 -->
<g id="node9" class="node">
<title>LET8</title>
<ellipse fill="none" stroke="#000000" cx="283" cy="-162" rx="27" ry="18"/>
<text text-anchor="middle" x="283" y="-157.8" font-family="Times,serif" font-size="14.00" fill="#000000">LET</text>
</g>
<!-- LET0&#45;&gt;LET8 -->
<g id="edge13" class="edge">
<title>LET0&#45;&gt;LET8</title>
<path fill="none" stroke="#000000" d="M158.0074,-223.2209C182.9053,-211.026 223.6456,-191.0716 251.8128,-177.2753"/>
<polygon fill="#000000" stroke="#000000" points="253.4011,-180.3948 260.8422,-172.8528 250.322,-174.1083 253.4011,-180.3948"/>
</g>
<!-- var3 -->
<g id="node4" class="node">
<title>var3</title>
<ellipse fill="none" stroke="#000000" cx="27" cy="-90" rx="27" ry="18"/>
<text text-anchor="middle" x="27" y="-85.8" font-family="Times,serif" font-size="14.00" fill="#000000">b</text>
</g>
<!-- LET2&#45;&gt;var3 -->
<g id="edge3" class="edge">
<title>LET2&#45;&gt;var3</title>
<path fill="none" stroke="#000000" d="M116.7639,-149.2936C99.592,-137.9507 74.2349,-121.201 54.8473,-108.3946"/>
<polygon fill="#000000" stroke="#000000" points="56.6835,-105.4128 46.4104,-102.8216 52.8254,-111.2536 56.6835,-105.4128"/>
</g>
<!-- int4 -->
<g id="node5" class="node">
<title>int4</title>
<ellipse fill="none" stroke="#000000" cx="99" cy="-90" rx="27" ry="18"/>
<text text-anchor="middle" x="99" y="-85.8" font-family="Times,serif" font-size="14.00" fill="#000000">10</text>
</g>
<!-- LET2&#45;&gt;int4 -->
<g id="edge4" class="edge">
<title>LET2&#45;&gt;int4</title>
<path fill="none" stroke="#000000" d="M127.2315,-144.937C122.8721,-136.4537 117.5047,-126.0092 112.6247,-116.513"/>
<polygon fill="#000000" stroke="#000000" points="115.6463,-114.7352 107.9626,-107.4407 109.4203,-117.9348 115.6463,-114.7352"/>
</g>
<!-- ADD5 -->
<g id="node6" class="node">
<title>ADD5</title>
<ellipse fill="none" stroke="#000000" cx="173" cy="-90" rx="29.0343" ry="18"/>
<text text-anchor="middle" x="173" y="-85.8" font-family="Times,serif" font-size="14.00" fill="#000000">ADD</text>
</g>
<!-- LET2&#45;&gt;ADD5 -->
<g id="edge5" class="edge">
<title>LET2&#45;&gt;ADD5</title>
<path fill="none" stroke="#000000" d="M144.7685,-144.937C149.1279,-136.4537 154.4953,-126.0092 159.3753,-116.513"/>
<polygon fill="#000000" stroke="#000000" points="162.5797,-117.9348 164.0374,-107.4407 156.3537,-114.7352 162.5797,-117.9348"/>
</g>
<!-- var6 -->
<g id="node7" class="node">
<title>var6</title>
<ellipse fill="none" stroke="#000000" cx="137" cy="-18" rx="27" ry="18"/>
<text text-anchor="middle" x="137" y="-13.8" font-family="Times,serif" font-size="14.00" fill="#000000">b</text>
</g>
<!-- ADD5&#45;&gt;var6 -->
<g id="edge1" class="edge">
<title>ADD5&#45;&gt;var6</title>
<path fill="none" stroke="#000000" d="M164.2854,-72.5708C160.0403,-64.0807 154.8464,-53.6929 150.1337,-44.2674"/>
<polygon fill="#000000" stroke="#000000" points="153.237,-42.6477 145.6343,-35.2687 146.976,-45.7782 153.237,-42.6477"/>
</g>
<!-- var7 -->
<g id="node8" class="node">
<title>var7</title>
<ellipse fill="none" stroke="#000000" cx="209" cy="-18" rx="27" ry="18"/>
<text text-anchor="middle" x="209" y="-13.8" font-family="Times,serif" font-size="14.00" fill="#000000">b</text>
</g>
<!-- ADD5&#45;&gt;var7 -->
<g id="edge2" class="edge">
<title>ADD5&#45;&gt;var7</title>
<path fill="none" stroke="#000000" d="M181.7146,-72.5708C185.9597,-64.0807 191.1536,-53.6929 195.8663,-44.2674"/>
<polygon fill="#000000" stroke="#000000" points="199.024,-45.7782 200.3657,-35.2687 192.763,-42.6477 199.024,-45.7782"/>
</g>
<!-- var9 -->
<g id="node10" class="node">
<title>var9</title>
<ellipse fill="none" stroke="#000000" cx="247" cy="-90" rx="27" ry="18"/>
<text text-anchor="middle" x="247" y="-85.8" font-family="Times,serif" font-size="14.00" fill="#000000">b</text>
</g>
<!-- LET8&#45;&gt;var9 -->
<g id="edge8" class="edge">
<title>LET8&#45;&gt;var9</title>
<path fill="none" stroke="#000000" d="M274.2854,-144.5708C270.0403,-136.0807 264.8464,-125.6929 260.1337,-116.2674"/>
<polygon fill="#000000" stroke="#000000" points="263.237,-114.6477 255.6343,-107.2687 256.976,-117.7782 263.237,-114.6477"/>
</g>
<!-- int10 -->
<g id="node11" class="node">
<title>int10</title>
<ellipse fill="none" stroke="#000000" cx="319" cy="-90" rx="27" ry="18"/>
<text text-anchor="middle" x="319" y="-85.8" font-family="Times,serif" font-size="14.00" fill="#000000">20</text>
</g>
<!-- LET8&#45;&gt;int10 -->
<g id="edge9" class="edge">
<title>LET8&#45;&gt;int10</title>
<path fill="none" stroke="#000000" d="M291.7146,-144.5708C295.9597,-136.0807 301.1536,-125.6929 305.8663,-116.2674"/>
<polygon fill="#000000" stroke="#000000" points="309.024,-117.7782 310.3657,-107.2687 302.763,-114.6477 309.024,-117.7782"/>
</g>
<!-- ADD11 -->
<g id="node12" class="node">
<title>ADD11</title>
<ellipse fill="none" stroke="#000000" cx="393" cy="-90" rx="29.0343" ry="18"/>
<text text-anchor="middle" x="393" y="-85.8" font-family="Times,serif" font-size="14.00" fill="#000000">ADD</text>
</g>
<!-- LET8&#45;&gt;ADD11 -->
<g id="edge10" class="edge">
<title>LET8&#45;&gt;ADD11</title>
<path fill="none" stroke="#000000" d="M302.4126,-149.2936C319.5281,-138.0907 344.7012,-121.6138 364.1698,-108.8707"/>
<polygon fill="#000000" stroke="#000000" points="366.2138,-111.7159 372.664,-103.3108 362.3802,-105.859 366.2138,-111.7159"/>
</g>
<!-- var12 -->
<g id="node13" class="node">
<title>var12</title>
<ellipse fill="none" stroke="#000000" cx="357" cy="-18" rx="27" ry="18"/>
<text text-anchor="middle" x="357" y="-13.8" font-family="Times,serif" font-size="14.00" fill="#000000">a</text>
</g>
<!-- ADD11&#45;&gt;var12 -->
<g id="edge6" class="edge">
<title>ADD11&#45;&gt;var12</title>
<path fill="none" stroke="#000000" d="M384.2854,-72.5708C380.0403,-64.0807 374.8464,-53.6929 370.1337,-44.2674"/>
<polygon fill="#000000" stroke="#000000" points="373.237,-42.6477 365.6343,-35.2687 366.976,-45.7782 373.237,-42.6477"/>
</g>
<!-- var13 -->
<g id="node14" class="node">
<title>var13</title>
<ellipse fill="none" stroke="#000000" cx="429" cy="-18" rx="27" ry="18"/>
<text text-anchor="middle" x="429" y="-13.8" font-family="Times,serif" font-size="14.00" fill="#000000">b</text>
</g>
<!-- ADD11&#45;&gt;var13 -->
<g id="edge7" class="edge">
<title>ADD11&#45;&gt;var13</title>
<path fill="none" stroke="#000000" d="M401.7146,-72.5708C405.9597,-64.0807 411.1536,-53.6929 415.8663,-44.2674"/>
<polygon fill="#000000" stroke="#000000" points="419.024,-45.7782 420.3657,-35.2687 412.763,-42.6477 419.024,-45.7782"/>
</g>
</g>
</svg>
